<svg xmlns="http://www.w3.org/2000/svg" width="22" height="20.651" viewBox="0 0 22 20.651">
  <path id="stroe" d="M21.541,18.36a2.092,2.092,0,0,0-1.619-.75H6.4a2.046,2.046,0,0,0-1.073.3L4.635,15.5a.92.92,0,0,0-.882-.669H.7a.7.7,0,0,0-.7.7V15.6a.7.7,0,0,0,.7.7H3.325l1.342,4.744,1.847,6.545a2.415,2.415,0,0,0,.428,4.753,2.361,2.361,0,1,0,4.589.782,2.327,2.327,0,0,0-.132-.778h2.765a2.362,2.362,0,1,0,2.192-1.587H7.118a.845.845,0,0,1-.851-.8A.827.827,0,0,1,7.1,29.1H18.116A2.048,2.048,0,0,0,20.1,27.547l1.838-7.4A2.033,2.033,0,0,0,21.541,18.36ZM16.4,32.337a.778.778,0,1,1-.778.778A.78.78,0,0,1,16.4,32.337Zm-7.227,0a.778.778,0,1,1-.778.778A.78.78,0,0,1,9.17,32.337ZM6.313,21.029l-.355-1.251a.436.436,0,0,1,.077-.4A.448.448,0,0,1,6.4,19.2H7.882l.4,1.838H6.313Zm.446,1.583H8.633l.373,1.7H7.236Zm1.724,4.894a.457.457,0,0,1-.441-.337L7.682,25.9H9.351L9.706,27.5H8.483v0Zm3.962,0H11.325L10.971,25.9H12.44v1.606Zm0-3.193H10.625l-.373-1.7h2.192Zm0-3.284H9.906l-.4-1.838h2.943Zm2.838,6.477H14.032V25.9h1.587Zm.673-3.193H14.032v-1.7h2.283Zm-1.924-3.284V19.192h3l-.387,1.838Zm4.535,6.131a.458.458,0,0,1-.446.35H16.9l.341-1.606H18.88Zm.7-2.847h-1.7l.359-1.7h1.76ZM20.4,19.76l-.314,1.264H18.266l.387-1.838h1.3a.436.436,0,0,1,.359.177A.442.442,0,0,1,20.4,19.76Z" transform="translate(0 -14.83)" fill="#2094cd"/>
</svg>
